<?xml version="1.0" encoding="UTF-8"?>
<svg id="Layer_2" data-name="Layer 2" xmlns="http://www.w3.org/2000/svg" viewBox="0 0 275.24 133.56">
  <defs>
    <style>
      .cls-1 {
        stroke-width: 0px;
      }
    </style>
  </defs>
  <g id="Layer_1-2" data-name="Layer 1">
    <path class="cls-1" d="M191.93,58.81c17.19,26.92,37.53,49.79,54.23,74.16h28.97c.31-2.42-1.03-3.6-2.03-4.85-9.27-11.56-18.58-23.09-27.88-34.62-1.75-2.17-3.94-4.13-3.14-7.76,1.31-.4,2.69-1.05,4.12-1.21,7.19-.8,12.77-4.47,17.58-9.58,9.31-9.89,12.04-21.91,11.38-35.04-1.06-20.95-17.51-36.89-37.07-38.79-14.36-1.39-28.99-1.25-43.4-.79-16.64.53-33.25-.21-49.87.39-15.27.55-30.54-.4-45.84-.24-33.46.36-45.03,33.68-35.59,56.07,6.3,14.95,18.09,22.1,33.99,22.68,8.99.33,18,0,26.99.23,7.33.18,13.53,5.86,14.03,12.44.64,8.3-5.44,14.78-14.42,14.85-19,.14-37.99.03-56.99.06-2.12,0-4.33-.47-7.22,1.28.93,7.84.45,16.18.66,23.92,2.02,1.61,3.58,1.4,5.04,1.37,22.14-.43,44.31,1.17,66.43-.9,8.24-.77,15.48-3.6,21.28-9.74,6.48-6.85,9.24-15.34,10.36-24.35,2.19-17.78-5.71-35.13-23.64-41.7-8.64-3.16-17.83-2.04-26.75-1.49-5.74.35-11.27-.04-16.69-1.5-7.96-2.14-11.39-7.86-10.38-16.34.71-5.96,6.47-10.81,13.64-10.82,44.66-.09,89.32-.11,133.98,0,8.81.02,15.92,8.44,15.78,17.96-.11,7.8-6.92,14.27-15.57,14.4-9.16.14-18.33-.05-27.5-.08-4.28-.02-8.56,0-14.47,0ZM0,.78v131.38h22.76V.78H0Z"/>
  </g>
</svg>